<svg xmlns="http://www.w3.org/2000/svg">
    <symbol id="search-icon">
        <path stroke-linecap="round" stroke-linejoin="round" stroke-width="2"
              d="M21 21l-6-6m2-5a7 7 0 11-14 0 7 7 0 0114 0z"/>
    </symbol>

    <symbol id="add-icon">
        <path stroke-linecap="round" stroke-linejoin="round" stroke-width="2" d="M12 4v16m8-8H4"/>
    </symbol>

    <symbol id="invite-icon">
        <path stroke-linecap="round" stroke-linejoin="round" stroke-width="2" d="M18 9v3m0 0v3m0-3h3m-3 0h-3m-2-5a4 4 0 11-8 0 4 4 0 018 0zM3 20a6 6 0 0112 0v1H3v-1z"/>
    </symbol>

    <symbol id="download-icon">
        <path stroke-linecap="round" stroke-linejoin="round" stroke-width="2" d="M12 10v6m0 0l-3-3m3 3l3-3m2 8H7a2 2 0 01-2-2V5a2 2 0 012-2h5.586a1 1 0 01.707.293l5.414 5.414a1 1 0 01.293.707V19a2 2 0 01-2 2z"/>
    </symbol>
</svg>