<svg xmlns="http://www.w3.org/2000/svg">
    <symbol id="stocks">
        <path stroke-linecap="round" stroke-linejoin="round" stroke-width="2"
              d="M9 19v-6a2 2 0 00-2-2H5a2 2 0 00-2 2v6a2 2 0 002 2h2a2 2 0 002-2zm0 0V9a2 2 0 012-2h2a2 2 0 012 2v10m-6 0a2 2 0 002 2h2a2 2 0 002-2m0 0V5a2 2 0 012-2h2a2 2 0 012 2v14a2 2 0 01-2 2h-2a2 2 0 01-2-2z"/>
    </symbol>

    <symbol id="bonds">
        <path stroke-linecap="round" stroke-linejoin="round" stroke-width="2"
              d="M9 12h6m-6 4h6m2 5H7a2 2 0 01-2-2V5a2 2 0 012-2h5.586a1 1 0 01.707.293l5.414 5.414a1 1 0 01.293.707V19a2 2 0 01-2 2z"/>
    </symbol>

    <symbol id="real-estate">
        <path stroke-linecap="round" stroke-linejoin="round" stroke-width="2"
              d="M19 21V5a2 2 0 00-2-2H7a2 2 0 00-2 2v16m14 0h2m-2 0h-5m-9 0H3m2 0h5M9 7h1m-1 4h1m4-4h1m-1 4h1m-5 10v-5a1 1 0 011-1h2a1 1 0 011 1v5m-4 0h4"/>
    </symbol>

    <symbol id="chart">
        <path stroke-linecap="round" stroke-linejoin="round" stroke-width="2"
              d="M7 12l3-3 3 3 4-4M8 21l4-4 4 4M3 4h18M4 4v16"/>
    </symbol>

    <symbol id="wallet-icon">
        <path stroke-linecap="round" stroke-linejoin="round" stroke-width="2"
              d="M3 10h18M7 15h1m4 0h1m-7 4h12a3 3 0 003-3V8a3 3 0 00-3-3H6a3 3 0 00-3 3v8a3 3 0 003 3z"/>
    </symbol>

    <symbol id="wallet-icon-vacation">
        <path stroke-linecap="round" stroke-linejoin="round" stroke-width="2"
              d="M3.055 11H5a2 2 0 012 2v1a2 2 0 002 2 2 2 0 012 2v2.945M8 3.935V5.5A2.5 2.5 0 0010.5 8h.5a2 2 0 012 2 2 2 0 104 0 2 2 0 012-2h1.064M15 20.488V18a2 2 0 012-2h3.064M21 12a9 9 0 11-18 0 9 9 0 0118 0z"/>
    </symbol>

    <symbol id="wallet-icon-project">
        <path stroke-linecap="round" stroke-linejoin="round" stroke-width="2"
              d="M19 21V5a2 2 0 00-2-2H7a2 2 0 00-2 2v16m14 0h2m-2 0h-5m-9 0H3m2 0h5M9 7h1m-1 4h1m4-4h1m-1 4h1m-5 10v-5a1 1 0 011-1h2a1 1 0 011 1v5m-4 0h4"/>
    </symbol>

    <symbol id="groceries-icon">
        <path stroke-linecap="round" stroke-linejoin="round" stroke-width="2" d="M3 3h2l.4 2M7 13h10l4-8H5.4M7 13L5.4 5M7 13l-2.293 2.293c-.63.63-.184 1.707.707 1.707H17m0 0a2 2 0 100 4 2 2 0 000-4zm-8 2a2 2 0 11-4 0 2 2 0 014 0z"/>
    </symbol>

    <symbol id="utilities-icon">
        <path stroke-linecap="round" stroke-linejoin="round" stroke-width="2" d="M13 10V3L4 14h7v7l9-11h-7z"/>
    </symbol>

    <symbol id="dining-icon">
        <path stroke-linecap="round" stroke-linejoin="round" stroke-width="2" d="M12 8v13m0-13V6a2 2 0 112 2h-2zm0 0V5.5A2.5 2.5 0 109.5 8H12zm-7 4h14M5 12a2 2 0 110-4h14a2 2 0 110 4M5 12v7a2 2 0 002 2h10a2 2 0 002-2v-7"/>
    </symbol>

    <symbol id="transport-icon">
        <path stroke-linecap="round" stroke-linejoin="round" stroke-width="2" d="M8 7h12m0 0l-4-4m4 4l-4 4m0 6H4m0 0l4 4m-4-4l4-4"/>
    </symbol>

    <symbol id="all-transactions">
        <path stroke-linecap="round" stroke-linejoin="round" stroke-width="2" d="M9 5H7a2 2 0 00-2 2v12a2 2 0 002 2h10a2 2 0 002-2V7a2 2 0 00-2-2h-2M9 5a2 2 0 002 2h2a2 2 0 002-2M9 5a2 2 0 012-2h2a2 2 0 012 2m-3 7h3m-3 4h3m-6-4h.01M9 16h.01"/>
    </symbol>
</svg>