<svg xmlns="http://www.w3.org/2000/svg">
    <symbol id="info">
        <path stroke-linecap="round" stroke-linejoin="round" stroke-width="2"
              d="M13 16h-1v-4h-1m1-4h.01M21 12a9 9 0 11-18 0 9 9 0 0118 0z"/>
    </symbol>

    <symbol id="success">
        <path stroke-linecap="round" stroke-linejoin="round" stroke-width="2"
              d="M9 12l2 2 4-4m6 2a9 9 0 11-18 0 9 9 0 0118 0z"/>
    </symbol>

    <symbol id="warning">
        <path stroke-linecap="round" stroke-linejoin="round" stroke-width="2"
              d="M12 9v2m0 4h.01m-6.938 4h13.856c1.54 0 2.502-1.667 1.732-3L13.732 4c-.77-1.333-2.694-1.333-3.464 0L3.34 16c-.77 1.333.192 3 1.732 3z"/>
    </symbol>

    <symbol id="alert">
        <path stroke-linecap="round" stroke-linejoin="round" stroke-width="2"
              d="M12 8v4m0 4h.01M21 12a9 9 0 11-18 0 9 9 0 0118 0z"/>
    </symbol>

    <symbol id="check-icon">
        <path stroke-linecap="round" stroke-linejoin="round" stroke-width="2" d="M5 13l4 4L19 7"/>
    </symbol>

    <symbol id="ai-icon">
        <path stroke-linecap="round" stroke-linejoin="round" stroke-width="2"
              d="M9.663 17h4.673M12 3v1m6.364 1.636l-.707.707M21 12h-1M4 12H3m3.343-5.657l-.707-.707m2.828 9.9a5 5 0 117.072 0l-.548.547A3.374 3.374 0 0014 18.469V19a2 2 0 11-4 0v-.531c0-.895-.356-1.754-.988-2.386l-.548-.547z"/>
    </symbol>

    <symbol id="error-icon">
        <path stroke-linecap="round" stroke-linejoin="round" stroke-width="2"
              d="M12 8v4m0 4h.01M21 12a9 9 0 11-18 0 9 9 0 0118 0z"/>
    </symbol>

    <symbol id="money-icon">
        <path stroke-linecap="round" stroke-linejoin="round" stroke-width="2"
              d="M12 8c-1.657 0-3 .895-3 2s1.343 2 3 2 3 .895 3 2-1.343 2-3 2m0-8c1.11 0 2.08.402 2.599 1M12 8V7m0 1v8m0 0v1m0-1c-1.11 0-2.08-.402-2.599-1M21 12a9 9 0 11-18 0 9 9 0 0118 0z"/>
    </symbol>

    <symbol id="x-icon">
        <path stroke-linecap="round" stroke-linejoin="round" stroke-width="2" d="M6 18L18 6M6 6l12 12"/>
    </symbol>

    <symbol id="unread">
        <path stroke-linecap="round" stroke-linejoin="round" stroke-width="2"
              d="M20 13V6a2 2 0 00-2-2H6a2 2 0 00-2 2v7m16 0v5a2 2 0 01-2 2H6a2 2 0 01-2-2v-5m16 0h-2.586a1 1 0 00-.707.293l-2.414 2.414a1 1 0 01-.707.293h-3.172a1 1 0 01-.707-.293l-2.414-2.414A1 1 0 006.586 13H4"/>
    </symbol>

    <symbol id="calendar">
        <path stroke-linecap="round" stroke-linejoin="round" stroke-width="2"
              d="M20 13V6a2 2 0 00-2-2H6a2 2 0 00-2 2v7m16 0v5a2 2 0 01-2 2H6a2 2 0 01-2-2v-5m16 0h-2.586a1 1 0 00-.707.293l-2.414 2.414a1 1 0 01-.707.293h-3.172a1 1 0 01-.707-.293l-2.414-2.414A1 1 0 006.586 13H4"/>
    </symbol>

    <symbol id="trashbin">
        <path stroke-linecap="round" stroke-linejoin="round" stroke-width="2"
              d="M19 7l-.867 12.142A2 2 0 0116.138 21H7.862a2 2 0 01-1.995-1.858L5 7m5 4v6m4-6v6m1-10V4a1 1 0 00-1-1h-4a1 1 0 00-1 1v3M4 7h16"/>
    </symbol>
</svg>